<svg width="24" height="24" viewBox="0 0 24 24" fill="none" xmlns="http://www.w3.org/2000/svg">
<g id="devicon:facebook" clip-path="url(#clip0_801_290)">
<path id="Vector" d="M21.872 0.90564H2.13014C1.45393 0.90564 0.905762 1.45381 0.905762 2.13001V21.8719C0.905762 22.5481 1.45393 23.0963 2.13014 23.0963H21.872C22.5482 23.0963 23.0964 22.5481 23.0964 21.8719V2.13001C23.0964 1.45381 22.5482 0.90564 21.872 0.90564Z" fill="#3D5A98"/>
<path id="Vector_2" d="M16.215 23.0944V14.5013H19.0987L19.53 11.1525H16.215V9.015C16.215 8.04563 16.485 7.38375 17.8743 7.38375H19.6481V4.38375C18.7892 4.29424 17.926 4.25168 17.0625 4.25625C14.5087 4.25625 12.75 5.8125 12.75 8.68313V11.1525H9.86621V14.5013H12.75V23.0944H16.215Z" fill="white"/>
</g>
<defs>
<clipPath id="clip0_801_290">
<rect width="24" height="24" fill="white"/>
</clipPath>
</defs>
</svg>
