<svg width="30" height="24" viewBox="0 0 30 24" fill="none" xmlns="http://www.w3.org/2000/svg">
<g id="logos:youtube-icon" clip-path="url(#clip0_801_282)">
<path id="Vector" d="M29.3361 3.74333C29.1641 3.01981 28.8284 2.36019 28.3627 1.83017C27.8969 1.30015 27.3172 0.918215 26.6813 0.7224C24.3535 0 14.9846 0 14.9846 0C14.9846 0 5.61525 0.0218666 3.28738 0.744267C2.65152 0.940093 2.07183 1.32205 1.60604 1.85209C1.14026 2.38214 0.804634 3.04178 0.63259 3.76533C-0.0715343 8.47173 -0.344677 15.6432 0.651925 20.1613C0.823986 20.8849 1.15962 21.5445 1.6254 22.0745C2.09118 22.6045 2.67086 22.9865 3.30672 23.1823C5.63458 23.9047 15.0037 23.9047 15.0037 23.9047C15.0037 23.9047 24.3727 23.9047 26.7004 23.1823C27.3363 22.9865 27.916 22.6045 28.3818 22.0745C28.8476 21.5445 29.1833 20.8849 29.3554 20.1613C30.098 15.4483 30.3269 8.2812 29.3361 3.74333Z" fill="#FF0000"/>
<path id="Vector_2" d="M12.0029 17.0747L19.7751 11.9523L12.0029 6.8299V17.0747Z" fill="white"/>
</g>
<defs>
<clipPath id="clip0_801_282">
<rect width="30" height="24" fill="white"/>
</clipPath>
</defs>
</svg>
